<svg xmlns="http://www.w3.org/2000/svg" width="928" height="928" viewBox="0 0 928 928">
	<path d="M279.433 424.318C272.971 401.949 260.926 380.851 243.298 363.222C187.64 307.565 97.4011 307.565 41.7433 363.222C-13.9144 418.88 -13.9144 509.119 41.7433 564.777C59.372 582.406 80.4699 594.451 102.839 600.912C114.473 604.619 127.86 607.501 142.461 610.646C190.765 621.047 252.365 634.311 307.795 689.741C307.795 689.741 315.858 671.601 332.99 654.469C350.122 637.337 368.262 629.274 368.262 629.274C312.832 573.845 299.568 512.244 289.166 463.941C286.022 449.339 283.14 435.952 279.433 424.318Z" stroke="none" fill="black"/>
	<path d="M648.567 503.682C655.029 526.051 667.074 547.148 684.702 564.777C740.36 620.435 830.599 620.435 886.257 564.777C941.914 509.119 941.914 418.88 886.257 363.222C868.628 345.594 847.53 333.549 825.161 327.087C813.527 323.381 800.14 320.498 785.539 317.354C737.235 306.953 675.635 293.688 620.205 238.259C620.205 238.259 612.142 256.398 595.01 273.531C577.878 290.663 559.738 298.725 559.738 298.725C615.168 354.155 628.432 415.755 638.834 464.059C641.978 478.661 644.86 492.048 648.567 503.682Z" stroke="none" fill="black"/>
	<path d="M327.088 102.838C333.55 80.4686 345.595 59.3709 363.223 41.7423C418.881 -13.9154 509.12 -13.9154 564.778 41.7423C620.436 97.4001 620.436 187.639 564.778 243.297C547.149 260.926 526.051 272.971 503.682 279.432C492.048 283.139 478.662 286.021 464.06 289.165C415.756 299.567 354.156 312.831 298.726 368.261C298.726 368.261 290.664 350.121 273.532 332.989C256.4 315.857 238.26 307.794 238.26 307.794C293.689 252.365 306.954 190.764 317.355 142.461C320.499 127.859 323.382 114.472 327.088 102.838Z" stroke="none" fill="black"/>
	<path d="M600.912 825.162C594.45 847.531 582.405 868.628 564.777 886.257C509.119 941.915 418.88 941.915 363.222 886.257C307.564 830.599 307.564 740.36 363.222 684.702C380.851 667.074 401.949 655.029 424.318 648.567C435.952 644.861 449.338 641.978 463.94 638.834C512.244 628.433 573.844 615.168 629.274 559.739C629.274 559.739 637.336 577.878 654.468 595.011C671.6 612.143 689.74 620.205 689.74 620.205C634.31 675.635 621.046 737.235 610.645 785.539C607.501 800.141 604.618 813.528 600.912 825.162Z" stroke="none" fill="black"/>
</svg>
