<svg xmlns="http://www.w3.org/2000/svg" viewBox="0 0 360 360">
	<!-- 뾰족한 부분 (검은색) -->
	<polygon fill="black" points="180,285.9 193.8,296.6 204.5,282.9 220.5,290.1 227.7,274.2 244.8,277.3 248,260.1 265.4,259 264.4,241.6 281,236.4 275.9,219.7 290.8,210.7 281.8,195.7 294.1,183.4 281.8,171 290.8,156.1 275.9,147 281,130.3 264.4,125.1 265.4,107.7 248,106.6 244.8,89.5 227.6,92.6 220.5,76.7 204.5,83.8 193.7,70.1 180,80.8 166.2,70.1 155.4,83.8 139.5,76.7 132.3,92.6 115.2,89.5 112,106.6 94.6,107.7 95.6,125.1 79,130.3 84.1,147 69.2,156.1 78.2,171 65.9,183.4 78.2,195.7 69.2,210.7 84.1,219.7 79,236.4 95.6,241.6 94.6,259 112,260.1 115.2,277.3 132.3,274.2 139.5,290.1 155.4,282.9 166.2,296.6"/>
	<!-- 띠 외곽 (흰색) -->
	<path fill="white" d="M252.7,355.2c-45.1,0-103.5-63-143.5-135.2c-23.8-42.9-40.1-86.9-46-123.8C54.6,41.7,71,20.1,86.3,11.7c15.3-8.5,42.3-11,83.9,25.2c28.2,24.5,56.8,61.7,80.6,104.6c46.6,84,69.4,182.6,22.9,208.3C267.2,353.5,260.1,355.2,252.7,355.2z M107.4,40c-2,0-3.6,0.4-4.8,1c-6.4,3.6-10.9,20.4-6.2,49.9c5.3,33.2,20.2,73.2,42.2,112.8c50.1,90.4,104.8,124.5,118.9,116.7c14.1-7.8,14.1-72.3-36-162.7c-21.9-39.6-48-73.5-73.3-95.5C129.9,46.4,115.6,40,107.4,40z"/>
	<!-- 중심 원 (검은색) -->
	<path fill="black" d="M180,270c47.9,0,86.7-38.8,86.7-86.7S227.8,96.7,180,96.7c-47.9,0-86.7,38.8-86.7,86.7S132.1,270,180,270"/>
	<!-- 띠 채움 (흰색) -->
	<path stroke="none" fill="white" d="M252.5,355.1c-46.9,0-105.5-66.8-143.3-135.1c-23.8-42.9-40.1-86.9-46-123.8C54.6,41.7,71,20.1,86.3,11.7L102.6,41c-6.4,3.6-10.9,20.4-6.2,49.9c5.3,33.2,20.2,73.2,42.2,112.8c45.5,82,99.2,123.6,117.7,117.3l10.9,31.8C262.4,354.4,257.5,355.1,252.5,355.1z"/>
</svg>
