<?xml version="1.0" encoding="utf-8"?>
<!-- Svg Vector Icons : http://www.onlinewebfonts.com/icon -->
<!DOCTYPE svg PUBLIC "-//W3C//DTD SVG 1.1//EN" "http://www.w3.org/Graphics/SVG/1.1/DTD/svg11.dtd">
<svg version="1.1" xmlns="http://www.w3.org/2000/svg" xmlns:xlink="http://www.w3.org/1999/xlink" x="0px" y="0px" viewBox="0 0 256 256" enable-background="new 0 0 256 256" xml:space="preserve">
<metadata> Svg Vector Icons : http://www.onlinewebfonts.com/icon </metadata>
<g><g><path fill="#000000" d="M223.5,177.8h-14.2v-54c-2.2,1.8-4.5,2.3-6.4,2.3h-2.6c-7.3,0-11.1-9-12.8-14.6c-1.9-0.6-3.7-1.3-5.5-2.1c-2.7,1.7-7.8,4.5-12.7,4.5c-2.8,0-5.2-0.9-7.1-2.6l-2.4-1.9l-0.1-0.1c-5.1-4.9-1.5-13.5,2-19.2c-0.9-1.7-1.7-3.5-2.3-5.2c-1.8-0.5-4.3-1.3-6.7-2.4c-5.8-2.6-8.7-6-8.7-10v-2.5c0-3.1,1.5-7.3,8.6-10.3c2.4-1,4.9-1.7,6.8-2.1c0.6-1.7,1.4-3.4,2.2-5.1c-3.6-5.7-7.3-14.3-2.1-19.2l0.1-0.1l2.5-2c0.1-0.1,0.2-0.2,0.4-0.3c-7.6-3.9-15.9-6.6-24.6-8c0-0.4,0.2-0.8,0.2-1.2c0-7.9-6.4-14.2-14.2-14.2c-7.9,0-14.2,6.4-14.2,14.2c0,0.4,0.2,0.8,0.2,1.2c-40.5,6.7-71.4,41.8-71.4,84.1v71.2H24.2c-7.9,0-14.2,6.4-14.2,14.2c0,7.9,6.4,14.2,14.2,14.2h199.3c7.9,0,14.2-6.4,14.2-14.2C237.8,184.2,231.4,177.8,223.5,177.8z"/><path fill="#000000" d="M123.9,249c15.7,0,28.5-12.7,28.5-28.5H95.4C95.4,236.2,108.2,249,123.9,249z"/><path fill="#000000" d="M234.1,62.3c-0.8-2.6-1.9-5.1-3.2-7.4c1.6-2,7-9.5,3.1-13.3l-2-2c-3.3-3.2-11.8,1.8-13.9,3.1c-2.4-1.3-5.1-2.4-7.8-3.1c-0.4-2.5-2.4-11.3-7.9-11.3h-2.2c-4.7,0-7.4,9.1-8,11.4c-2.7,0.7-5.3,1.8-7.7,3.1c-1.9-1.3-10-6.7-14-2.9l-2.1,1.7c-3.5,3.3,2.3,12,3.3,13.5c-1.3,2.3-2.4,4.7-3.1,7.3c-2.3,0.3-12.1,2.1-12.1,7.5V72c0,4.7,10.3,7.3,12.2,7.7c0.7,2.5,1.8,5,3.2,7.2c-1.1,1.7-6.6,10.3-3.2,13.6l2,1.6c4.5,4.3,14-2.8,14-2.8l-0.4-0.4c2.5,1.4,5.2,2.5,8.1,3.3c0.5,1.9,3.2,11.6,8,11.6h2.2c6.4,0,8-11.4,8-11.4l-0.6,0c2.9-0.7,5.7-1.8,8.2-3.1c2,1.3,10.3,6.2,13.7,3.1l2.2-2.1c4.5-4.2-2.8-12.9-3-13.2c1.4-2.3,2.5-4.8,3.3-7.4C236.6,79,246,76.4,246,72v-2.1C245.9,64,234.8,62.4,234.1,62.3z M201.1,95c-13.9,0-25.2-10.7-25.2-24c0-13.3,11.3-24,25.2-24c13.9,0,25.2,10.7,25.2,24S215.1,95,201.1,95z"/><path fill="#000000" d="M201.1,55c-9.3,0-16.8,7.2-16.8,16c0,8.8,7.5,16,16.8,16c9.3,0,16.8-7.2,16.8-16C218,62.2,210.4,55,201.1,55z M201.1,79c-4.6,0-8.4-3.6-8.4-8c0-4.4,3.8-8,8.4-8s8.4,3.6,8.4,8C209.6,75.5,205.8,79,201.1,79z"/></g></g>
</svg>